<svg width="149" height="73" viewBox="0 0 149 73" fill="none" xmlns="http://www.w3.org/2000/svg">
<path d="M11.2641 56.8109V71.7427H2.92891V36.8336H10.9914V50.3677H11.2812C11.8721 48.754 12.838 47.4927 14.1789 46.5836C15.5312 45.6745 17.1846 45.22 19.1391 45.22C20.98 45.22 22.5823 45.629 23.946 46.4472C25.3096 47.254 26.3664 48.3961 27.1164 49.8734C27.8778 51.3506 28.2528 53.0779 28.2414 55.0552V71.7427H19.9062V56.6915C19.9175 55.237 19.5539 54.1006 18.8153 53.2825C18.0766 52.4643 17.0369 52.0552 15.696 52.0552C14.821 52.0552 14.0482 52.2484 13.3778 52.6347C12.7187 53.0097 12.2016 53.5495 11.8266 54.254C11.463 54.9586 11.2755 55.8109 11.2641 56.8109Z" fill="white"/>
<path d="M40.8252 72.1859C39.1548 72.1859 37.6718 71.9075 36.3764 71.3506C35.0923 70.7825 34.0752 69.9302 33.3252 68.7938C32.5866 67.6461 32.2173 66.2086 32.2173 64.4813C32.2173 63.0268 32.4729 61.7995 32.9843 60.7995C33.4957 59.7995 34.2002 58.987 35.0979 58.362C35.9957 57.737 37.0298 57.2654 38.2002 56.9472C39.3707 56.6177 40.6207 56.3961 41.9502 56.2825C43.4389 56.1461 44.6377 56.004 45.5468 55.8563C46.4559 55.6972 47.115 55.4756 47.5241 55.1915C47.9445 54.8961 48.1548 54.4813 48.1548 53.9472V53.862C48.1548 52.987 47.8536 52.3109 47.2514 51.8336C46.6491 51.3563 45.8366 51.1177 44.8139 51.1177C43.7116 51.1177 42.8252 51.3563 42.1548 51.8336C41.4843 52.3109 41.0582 52.97 40.8764 53.8109L33.1889 53.5381C33.4161 51.9472 34.0014 50.5268 34.9445 49.2768C35.8991 48.0154 37.2059 47.0268 38.865 46.3109C40.5354 45.5836 42.5411 45.22 44.882 45.22C46.5525 45.22 48.0923 45.4188 49.5014 45.8165C50.9104 46.2029 52.1377 46.7711 53.1832 47.5211C54.2286 48.2597 55.0354 49.1688 55.6036 50.2484C56.1832 51.3279 56.4729 52.5609 56.4729 53.9472V71.7427H48.632V68.095H48.4275C47.9616 68.9813 47.365 69.7313 46.6377 70.345C45.9218 70.9586 45.0752 71.4188 44.0979 71.7256C43.132 72.0325 42.0411 72.1859 40.8252 72.1859ZM43.3991 66.7313C44.2968 66.7313 45.1036 66.5495 45.8195 66.1859C46.5468 65.8222 47.1264 65.3222 47.5582 64.6859C47.99 64.0381 48.2059 63.2881 48.2059 62.4359V59.9472C47.9673 60.0722 47.6775 60.1859 47.3366 60.2881C47.007 60.3904 46.6434 60.487 46.2457 60.5779C45.8479 60.6688 45.4389 60.7484 45.0184 60.8165C44.5979 60.8847 44.1945 60.9472 43.8082 61.004C43.0241 61.129 42.3536 61.3222 41.7968 61.5836C41.2514 61.845 40.8309 62.1859 40.5354 62.6063C40.2514 63.0154 40.1093 63.504 40.1093 64.0722C40.1093 64.9359 40.4161 65.595 41.0298 66.0495C41.6548 66.504 42.4445 66.7313 43.3991 66.7313Z" fill="white"/>
<path d="M61.5695 71.7427V36.8336H69.9048V50.0438H70.0752C70.4161 49.2484 70.8991 48.4813 71.5241 47.7427C72.1604 47.004 72.9673 46.4018 73.9445 45.9359C74.9332 45.4586 76.115 45.22 77.49 45.22C79.3082 45.22 81.007 45.6972 82.5866 46.6518C84.1775 47.6063 85.4616 49.0779 86.4389 51.0665C87.4161 53.0552 87.9048 55.5893 87.9048 58.6688C87.9048 61.6347 87.4332 64.1177 86.49 66.1177C85.5582 68.1177 84.2968 69.6177 82.7059 70.6177C81.1264 71.6177 79.3707 72.1177 77.4389 72.1177C76.1207 72.1177 74.9786 71.9018 74.0127 71.47C73.0468 71.0381 72.2343 70.47 71.5752 69.7654C70.9275 69.0609 70.4275 68.3052 70.0752 67.4984H69.8195V71.7427H61.5695ZM69.7343 58.6518C69.7343 60.0609 69.9218 61.2881 70.2968 62.3336C70.6832 63.379 71.2343 64.1915 71.9502 64.7711C72.6775 65.3393 73.5468 65.6234 74.5582 65.6234C75.5809 65.6234 76.4502 65.3393 77.1661 64.7711C77.882 64.1915 78.4218 63.379 78.7854 62.3336C79.1604 61.2881 79.3479 60.0609 79.3479 58.6518C79.3479 57.2427 79.1604 56.0211 78.7854 54.987C78.4218 53.9529 77.882 53.1518 77.1661 52.5836C76.4616 52.0154 75.5923 51.7313 74.5582 51.7313C73.5354 51.7313 72.6661 52.0097 71.9502 52.5665C71.2343 53.1234 70.6832 53.9188 70.2968 54.9529C69.9218 55.987 69.7343 57.22 69.7343 58.6518Z" fill="white"/>
<path d="M92.2727 71.7427V45.5609H100.608V71.7427H92.2727ZM96.4488 42.5097C95.2783 42.5097 94.2727 42.1234 93.4318 41.3506C92.5908 40.5665 92.1704 39.6234 92.1704 38.5211C92.1704 37.4302 92.5908 36.4984 93.4318 35.7256C94.2727 34.9415 95.2783 34.5495 96.4488 34.5495C97.6306 34.5495 98.6363 34.9415 99.4658 35.7256C100.307 36.4984 100.727 37.4302 100.727 38.5211C100.727 39.6234 100.307 40.5665 99.4658 41.3506C98.6363 42.1234 97.6306 42.5097 96.4488 42.5097Z" fill="white"/>
<path d="M120.692 45.5609V51.6972H104.175V45.5609H120.692ZM107.635 39.2881H115.97V63.5097C115.97 64.0211 116.05 64.4359 116.209 64.754C116.379 65.0609 116.624 65.2825 116.942 65.4188C117.26 65.5438 117.641 65.6063 118.084 65.6063C118.402 65.6063 118.737 65.5779 119.089 65.5211C119.453 65.4529 119.726 65.3961 119.908 65.3506L121.169 71.3677C120.771 71.4813 120.209 71.6234 119.481 71.7938C118.766 71.9643 117.908 72.0722 116.908 72.1177C114.953 72.2086 113.277 71.9813 111.879 71.4359C110.493 70.879 109.43 70.0154 108.692 68.845C107.964 67.6745 107.612 66.2029 107.635 64.4302V39.2881Z" fill="white"/>
<path d="M147.474 53.5552L139.821 53.7597C139.741 53.2143 139.526 52.7313 139.173 52.3109C138.821 51.879 138.361 51.5438 137.793 51.3052C137.236 51.0552 136.588 50.9302 135.849 50.9302C134.883 50.9302 134.06 51.1234 133.378 51.5097C132.707 51.8961 132.378 52.4188 132.389 53.0779C132.378 53.5893 132.582 54.0325 133.003 54.4075C133.435 54.7825 134.202 55.0836 135.304 55.3109L140.349 56.2654C142.963 56.7654 144.906 57.595 146.179 58.754C147.463 59.9131 148.111 61.4472 148.122 63.3563C148.111 65.1518 147.577 66.7143 146.52 68.0438C145.474 69.3734 144.043 70.4075 142.224 71.1461C140.406 71.8734 138.327 72.237 135.986 72.237C132.247 72.237 129.298 71.47 127.139 69.9359C124.991 68.3904 123.764 66.3222 123.457 63.7313L131.69 63.5268C131.872 64.4813 132.344 65.2086 133.105 65.7086C133.866 66.2086 134.838 66.4586 136.02 66.4586C137.088 66.4586 137.957 66.2597 138.628 65.862C139.298 65.4643 139.639 64.9359 139.65 64.2768C139.639 63.6859 139.378 63.2143 138.866 62.862C138.355 62.4984 137.554 62.2143 136.463 62.0097L131.895 61.1404C129.27 60.6631 127.315 59.7825 126.031 58.4984C124.747 57.2029 124.111 55.5552 124.122 53.5552C124.111 51.8052 124.577 50.3109 125.52 49.0722C126.463 47.8222 127.804 46.8677 129.543 46.2086C131.281 45.5495 133.332 45.22 135.696 45.22C139.241 45.22 142.037 45.9643 144.082 47.4529C146.128 48.9302 147.258 50.9643 147.474 53.5552Z" fill="white"/>
<rect x="0.786865" y="1.24268" width="15" height="15" rx="3.5" fill="#18181B" stroke="#27272A"/>
<rect x="20.7869" y="1.24268" width="15" height="15" rx="3.5" fill="#4C1D95" stroke="#6D28D9"/>
<rect x="40.7869" y="1.24268" width="15" height="15" rx="3.5" fill="#5B21B6" stroke="#7C3AED"/>
<rect x="60.7869" y="1.24268" width="15" height="15" rx="3.5" fill="#6D28D9" stroke="#8B5CF6"/>
<rect x="80.7869" y="1.24268" width="15" height="15" rx="3.5" fill="#7C3AED" stroke="#A78BFA"/>
<rect x="100.787" y="1.24268" width="15" height="15" rx="3.5" fill="#8B5CF6" stroke="#C4B5FD"/>
</svg>
